<?xml version="1.0" encoding="UTF-8"?><svg xmlns="http://www.w3.org/2000/svg" xmlns:xlink="http://www.w3.org/1999/xlink" width="375" zoomAndPan="magnify" viewBox="0 0 375 374.999991" height="374.999991" preserveAspectRatio="xMidYMid meet" version="1.0"><rect x="-37.5" width="450" fill="rgb(100%, 100%, 100%)" y="-37.499999" height="449.999989" fill-opacity="1"/><rect x="-37.5" width="450" fill="rgb(100%, 100%, 100%)" y="-37.499999" height="449.999989" fill-opacity="1"/><rect x="-37.5" width="450" fill="rgb(19.999695%, 19.999695%, 19.999695%)" y="-37.499999" height="449.999989" fill-opacity="1"/><path fill="rgb(19.999695%, 19.999695%, 19.999695%)" d="M 0.0976562 187.417969 C 0.0976562 290.960938 84.039062 374.902344 187.582031 374.902344 C 291.125 374.902344 375.066406 290.960938 375.066406 187.417969 C 375.058594 83.875 291.125 -0.0664062 187.582031 -0.0664062 C 84.039062 -0.0585938 0.0976562 83.875 0.0976562 187.417969 " fill-opacity="1" fill-rule="nonzero"/><path fill="rgb(19.999695%, 19.999695%, 19.999695%)" d="M 22.082031 187.417969 C 22.082031 278.8125 96.1875 352.917969 187.582031 352.917969 C 278.976562 352.917969 353.085938 278.8125 353.085938 187.417969 C 353.085938 96.007812 278.976562 21.914062 187.582031 21.914062 C 96.1875 21.914062 22.082031 96.007812 22.082031 187.417969 " fill-opacity="1" fill-rule="nonzero"/><path fill="rgb(100%, 100%, 100%)" d="M 238.304688 172.445312 L 153.007812 25.550781 C 164.164062 23.171875 175.714844 21.914062 187.582031 21.914062 C 230.386719 21.914062 269.375 38.160156 298.761719 64.820312 L 238.304688 172.445312 " fill-opacity="1" fill-rule="nonzero"/><path fill="rgb(100%, 100%, 100%)" d="M 309.058594 75.03125 C 336.375 104.550781 353.085938 144.035156 353.085938 187.417969 C 353.085938 199.761719 351.714844 211.792969 349.152344 223.363281 L 226.191406 223.28125 L 309.058594 75.03125 " fill-opacity="1" fill-rule="nonzero"/><path fill="rgb(100%, 100%, 100%)" d="M 138 29.46875 L 197.136719 126.433594 L 33.683594 126.433594 C 51.960938 80.339844 90.335938 44.410156 138 29.46875 " fill-opacity="1" fill-rule="nonzero"/><path fill="rgb(100%, 100%, 100%)" d="M 146.28125 140.960938 L 61.117188 294.164062 C 36.773438 265.34375 22.082031 228.089844 22.082031 187.417969 C 22.082031 172.164062 24.164062 157.402344 28.011719 143.371094 C 97.855469 143.257812 146.28125 140.960938 146.28125 140.960938 " fill-opacity="1" fill-rule="nonzero"/><path fill="rgb(100%, 100%, 100%)" d="M 187.582031 352.917969 C 142.859375 352.917969 102.269531 335.167969 72.472656 306.328125 L 131.753906 199.070312 C 131.753906 199.070312 184.0625 290.296875 211.8125 351.152344 C 203.910156 352.308594 195.8125 352.917969 187.582031 352.917969 " fill-opacity="1" fill-rule="nonzero"/><path fill="rgb(100%, 100%, 100%)" d="M 228.320312 347.863281 L 168.082031 240.238281 L 345.648438 236.636719 C 328.640625 291.257812 284.132812 333.730469 228.320312 347.863281 " fill-opacity="1" fill-rule="nonzero"/></svg>